# xmcd CD database file
#
# Track frame offsets:
#	150
#	12277
#	23397
#	39315
#	51500
#	66517
#	72850
#	83985
#	98272
#	116050
#	128715
#	139955
#	160845
#	171885
#	188185
#	198495
#	211007
#	224822
#	238600
#	251805
#	265275
#
# Disc length: 3757 seconds
#
# Revision: 1
# Processed by: cddbd v1.5.2PL0 Copyright (c) Steve Scherf et al.
# Submitted via: CDex 1.51
#
DISCID=330eab15
DTITLE=Luis Mariano - Chevalier du ciel  (Opérette de Paul Colline - Musique de Henri Bourtayre and Jacques-Henry Rys)
DYEAR=1955
DGENRE=operette
TTITLE0=Chevalier du ciel  (Théatre de la Gaîté Lyrique le 4 Octobre 1955)
TTITLE1=Seul
TTITLE2=Mes paradis
TTITLE3=Et tout
TTITLE4=Et voilà le résultat
TTITLE5=Chanson des infirmières
TTITLE6=Valse des amours
TTITLE7=Mon bonheur s'est enfui
TTITLE8=Un palace
TTITLE9=Prière païnne
TTITLE10=Sans ton amour
TTITLE11=Valencia mia
TTITLE12=Paris desde la Torre Eiffel
TTITLE13=Jamaïca
TTITLE14=Un poquitito
TTITLE15=A nuevo Laredo
TTITLE16=La plus belle chose au monde
TTITLE17=Choisis
TTITLE18=C'est bon d'aimer
TTITLE19=Katharina
TTITLE20=Johnny guitare
EXTD=YEAR: 1955
EXTT0=
EXTT1=
EXTT2=
EXTT3=
EXTT4=
EXTT5=
EXTT6=
EXTT7=
EXTT8=
EXTT9=
EXTT10=
EXTT11=
EXTT12=
EXTT13=
EXTT14=
EXTT15=
EXTT16=
EXTT17=
EXTT18=
EXTT19=
EXTT20=
PLAYORDER=
